<svg width="30" height="30" viewBox="0 0 30 30" fill="none" xmlns="http://www.w3.org/2000/svg">
<path d="M24.8866 23.783C23.4236 21.1528 21.169 19.2668 18.5379 18.3727C19.8394 17.567 20.8506 16.3393 21.4161 14.8782C21.9817 13.417 22.0704 11.8032 21.6686 10.2845C21.2668 8.76589 20.3968 7.42637 19.1921 6.4717C17.9874 5.51703 16.5146 5 15 5C13.4854 5 12.0126 5.51703 10.8079 6.4717C9.60321 7.42637 8.73316 8.76589 8.33138 10.2845C7.9296 11.8032 8.0183 13.417 8.58387 14.8782C9.14944 16.3393 10.1606 17.567 11.4621 18.3727C8.83095 19.2658 6.5764 21.1518 5.11339 23.783C5.05974 23.874 5.02415 23.9752 5.00873 24.0807C4.99331 24.1862 4.99836 24.2939 5.02359 24.3973C5.04883 24.5008 5.09373 24.5979 5.15565 24.683C5.21757 24.7681 5.29525 24.8395 5.38411 24.8929C5.47297 24.9462 5.57122 24.9806 5.67305 24.9938C5.77487 25.0071 5.87822 24.999 5.977 24.97C6.07577 24.9411 6.16797 24.8918 6.24815 24.8252C6.32832 24.7586 6.39486 24.676 6.44383 24.5822C8.25363 21.3296 11.4525 19.3876 15 19.3876C18.5475 19.3876 21.7464 21.3296 23.5562 24.5822C23.6051 24.676 23.6717 24.7586 23.7519 24.8252C23.832 24.8918 23.9242 24.9411 24.023 24.97C24.1218 24.999 24.2251 25.0071 24.327 24.9938C24.4288 24.9806 24.527 24.9462 24.6159 24.8929C24.7048 24.8395 24.7824 24.7681 24.8444 24.683C24.9063 24.5979 24.9512 24.5008 24.9764 24.3973C25.0016 24.2939 25.0067 24.1862 24.9913 24.0807C24.9758 23.9752 24.9403 23.874 24.8866 23.783ZM9.62058 12.1952C9.62058 11.0888 9.93607 10.0072 10.5272 9.08724C11.1183 8.16729 11.9584 7.45028 12.9414 7.02687C13.9243 6.60346 15.006 6.49268 16.0495 6.70853C17.093 6.92438 18.0515 7.45717 18.8038 8.23953C19.5562 9.02188 20.0685 10.0187 20.2761 11.1038C20.4836 12.189 20.3771 13.3138 19.9699 14.336C19.5628 15.3582 18.8733 16.2318 17.9886 16.8465C17.104 17.4612 16.0639 17.7893 15 17.7893C13.5738 17.7877 12.2064 17.1978 11.1979 16.1491C10.1894 15.1003 9.6221 13.6784 9.62058 12.1952Z" fill="#949494"/>
</svg>
