<svg width="30" height="30" viewBox="0 0 30 30" fill="none" xmlns="http://www.w3.org/2000/svg">
<path d="M10 23.4615H20C20.1785 23.4612 20.3506 23.5328 20.4825 23.6623C20.6145 23.7918 20.6966 23.9698 20.7127 24.1613C20.7288 24.3527 20.6778 24.5437 20.5697 24.6967C20.4616 24.8496 20.3042 24.9534 20.1286 24.9877L20 25H10C9.82151 25.0004 9.64936 24.9287 9.51745 24.7992C9.38555 24.6697 9.30345 24.4917 9.28732 24.3003C9.27119 24.1088 9.32221 23.9178 9.43031 23.7649C9.53842 23.6119 9.69579 23.5081 9.87143 23.4738L10 23.4615ZM7.14857 20.3846H22.8514C23.0301 20.3839 23.2024 20.4552 23.3346 20.5846C23.4668 20.714 23.5492 20.892 23.5655 21.0836C23.5818 21.2751 23.5309 21.4663 23.4228 21.6194C23.3147 21.7726 23.1572 21.8765 22.9814 21.9108L22.8529 21.9231H7.14714C7.05286 21.9239 6.95936 21.9046 6.87204 21.8663C6.78472 21.828 6.7053 21.7715 6.63837 21.7C6.57143 21.6285 6.51831 21.5434 6.48206 21.4496C6.4458 21.3559 6.42714 21.2554 6.42714 21.1538C6.4276 20.9734 6.48695 20.7989 6.5948 20.6608C6.70265 20.5227 6.85215 20.4299 7.01714 20.3985L7.14857 20.3846ZM15 5C18.5214 5 20.5186 7.42154 20.8086 10.3446H20.8971C23.1629 10.3446 25 12.2477 25 14.5954C25 16.9431 23.1629 18.8462 20.8971 18.8462H9.10286C6.83714 18.8462 5 16.9431 5 14.5954C5 12.3354 6.70286 10.4877 8.85286 10.3523L9.19143 10.3446C9.48429 7.40308 11.4786 5 15 5ZM15 6.53846C12.6429 6.53846 10.59 8.49231 10.59 11.1923C10.59 11.62 10.2271 11.9569 9.81143 11.9569H9.02571C7.59143 11.9569 6.42857 13.1538 6.42857 14.6323C6.42857 16.1092 7.59143 17.3092 9.02571 17.3092H20.9743C22.4086 17.3092 23.5714 16.1092 23.5714 14.6323C23.5714 13.1554 22.4086 11.9554 20.9743 11.9554H20.1886C19.7743 11.9554 19.41 11.62 19.41 11.1923C19.41 8.45846 17.3557 6.53846 15 6.53846Z" fill="#3C8AFF"/>
</svg>
